<svg xmlns="http://www.w3.org/2000/svg" width="115" height="95" viewBox="0 0 115 95"><defs><style>.a{fill:#f8f8fa;}.b{fill:#fff;}.b,.d{font-size:12px;font-family:NotoSansKR-Medium, Noto Sans KR;font-weight:500;letter-spacing:-0.025em;}.c{fill:#e8eaef;}</style></defs><path class="a" d="M21,0H94a21,21,0,0,1,21,21V74A21,21,0,0,1,94,95H21A21,21,0,0,1,0,74V21A21,21,0,0,1,21,0Z"/><text class="b" transform="translate(40 83)"><tspan x="0" y="0">내 문서</tspan></text><g transform="translate(37.5 20.853)"><path class="c" d="M67.222,384.124H51.2a5.555,5.555,0,0,0-5.087-3.3H40.556A5.524,5.524,0,0,0,35,386.321v21.967a7.734,7.734,0,0,0,7.778,7.688H67.222A7.734,7.734,0,0,0,75,408.288V391.813A7.734,7.734,0,0,0,67.222,384.124Z" transform="translate(-35 -380.829)"/></g><text class="d" transform="translate(40 83)"><tspan x="0" y="0">내 문서</tspan></text></svg>