<svg xmlns="http://www.w3.org/2000/svg" width="115" height="95" viewBox="0 0 115 95"><defs><style>.a{fill:#245ae3;}.b{fill:#fff;font-size:12px;font-family:NotoSansKR-Medium, Noto Sans KR;font-weight:500;letter-spacing:-0.025em;}.c{fill:#e8eaef;}</style></defs><rect class="a" width="115" height="95" rx="21"/><text class="b" transform="translate(46 82)"><tspan x="0" y="0">서명</tspan></text><g transform="translate(132.5 84.506)"><path class="c" d="M222,218.844a6.527,6.527,0,0,1-4.76-2.114,4.238,4.238,0,0,0-6.491,0,6.411,6.411,0,0,1-9.516,0,4.229,4.229,0,0,0-6.482,0,6.4,6.4,0,0,1-9.51,0A4.294,4.294,0,0,0,182,215.218V212.47a6.517,6.517,0,0,1,4.756,2.114,4.226,4.226,0,0,0,6.479,0,6.406,6.406,0,0,1,9.511,0,4.236,4.236,0,0,0,6.489,0,6.414,6.414,0,0,1,9.519,0A4.305,4.305,0,0,0,222,216.1Z" transform="translate(-277 -243.578)"/><path class="c" d="M218.008,161.391a2.537,2.537,0,0,1,1.786.745l0,0a2.59,2.59,0,0,1,0,3.641l-.047.047-.009.009-19.6,19.7c-.553.5-2.7,1.1-5.2,1.524.478-2.492,1.118-4.62,1.618-5.161l19.657-19.759a2.5,2.5,0,0,1,1.786-.745m0-2.748a5.249,5.249,0,0,0-3.733,1.555l-19.658,19.759c-2.064,2.075-2.921,10.281-2.921,10.281s8.325-.686,10.389-2.76l19.657-19.76,0,0a5.337,5.337,0,0,0,0-7.512v0a5.253,5.253,0,0,0-3.736-1.557Z" transform="translate(-282.494 -222.643)"/></g></svg>